<svg xmlns="http://www.w3.org/2000/svg" xmlns:xlink="http://www.w3.org/1999/xlink" width="500" zoomAndPan="magnify" viewBox="0 0 375 374.999991" height="500" preserveAspectRatio="xMidYMid meet" version="1.0"><defs><clipPath id="91175dfa3c"><path d="M 14.480469 78 L 360 78 L 360 342.476562 L 14.480469 342.476562 Z M 14.480469 78 " clip-rule="nonzero"/></clipPath><clipPath id="8781e7b506"><path d="M 14.480469 87 L 132 87 L 132 208 L 14.480469 208 Z M 14.480469 87 " clip-rule="nonzero"/></clipPath><clipPath id="368579ef29"><path d="M 231 268 L 258 268 L 258 342.476562 L 231 342.476562 Z M 231 268 " clip-rule="nonzero"/></clipPath><clipPath id="54680b246b"><path d="M 245 32.726562 L 307 32.726562 L 307 95 L 245 95 Z M 245 32.726562 " clip-rule="nonzero"/></clipPath></defs><g clip-path="url(#91175dfa3c)"><path fill="#f3ba1d" d="M 357.867188 193.078125 C 354.628906 184.140625 344.746094 182.035156 337.046875 184.929688 C 335.121094 185.628906 333.722656 187.03125 332.234375 188.257812 C 329.347656 182.824219 325.324219 178.882812 319.636719 176.867188 C 319.636719 176.867188 319.546875 176.867188 319.546875 176.867188 C 317.796875 168.542969 315.085938 160.394531 311.585938 152.683594 C 307.210938 142.785156 301.613281 133.671875 294.789062 125.347656 C 287.179688 115.886719 278.339844 107.738281 268.28125 100.902344 C 256.90625 93.105469 244.484375 87.410156 231.097656 83.640625 C 221.914062 81.101562 212.640625 79.609375 203.191406 79.085938 C 197.152344 78.734375 191.03125 78.824219 184.992188 79.609375 C 177.46875 80.574219 170.03125 81.890625 162.683594 84.078125 C 154.722656 86.445312 147.023438 89.511719 139.675781 93.453125 C 130.664062 98.1875 122.351562 104.058594 114.914062 111.066406 C 113.601562 112.292969 112.027344 113.34375 111.066406 114.921875 C 110.976562 114.921875 110.976562 114.921875 110.890625 114.921875 C 109.929688 114.921875 108.964844 114.921875 107.828125 115.097656 C 103.804688 115.535156 99.78125 115.972656 95.667969 115.972656 C 93.742188 115.972656 91.992188 115.273438 90.507812 113.871094 C 86.65625 110.277344 83.683594 105.984375 80.621094 101.867188 C 77.296875 97.398438 74.058594 92.839844 69.773438 89.160156 C 65.921875 85.832031 62.859375 86.796875 60.410156 90.476562 C 60.0625 91 59.886719 91.613281 59.625 92.226562 C 58.660156 94.855469 58.222656 97.574219 57.523438 100.289062 C 55.863281 106.597656 55.160156 113.167969 53.410156 119.476562 C 52.535156 122.632812 51.222656 125.261719 47.726562 126.3125 C 46.324219 126.664062 44.839844 127.277344 43.4375 127.714844 C 36.875 129.816406 30.402344 131.917969 24.101562 134.722656 C 21.042969 136.039062 18.242188 137.878906 16.054688 140.503906 C 14.566406 142.257812 14.480469 144.097656 15.792969 146.027344 C 16.753906 147.515625 18.066406 148.566406 19.464844 149.707031 C 22.878906 152.421875 26.902344 154.261719 30.664062 156.539062 C 35.738281 159.519531 40.550781 162.761719 45.539062 165.828125 C 47.460938 166.964844 48.25 168.632812 48.164062 170.820312 C 48.074219 173.976562 48.511719 177.128906 48.773438 180.195312 C 49.039062 183.789062 49.386719 187.382812 49.648438 190.972656 C 49.914062 194.652344 49.914062 198.332031 50.085938 202.015625 C 50.175781 203.066406 50.351562 204.117188 50.613281 205.082031 C 50.960938 206.65625 52.097656 207.445312 53.761719 207.445312 C 54.722656 207.445312 55.511719 207.183594 56.296875 206.746094 C 58.921875 205.253906 61.460938 203.679688 63.648438 201.75 C 66.796875 198.945312 69.945312 196.144531 73.097656 193.339844 C 74.058594 192.464844 75.019531 191.675781 76.332031 191.324219 C 76.507812 190.886719 76.507812 191.0625 76.332031 191.5 C 76.332031 193.253906 76.246094 194.917969 76.160156 196.582031 C 75.894531 202.539062 76.507812 208.585938 77.207031 214.542969 C 77.734375 219.1875 78.609375 223.742188 79.746094 228.210938 C 81.144531 233.644531 82.894531 238.902344 84.996094 244.15625 C 87.621094 250.730469 90.769531 256.949219 94.441406 262.996094 C 98.292969 269.390625 102.667969 275.351562 107.742188 280.871094 C 110.976562 284.375 114.304688 287.792969 117.890625 291.035156 C 122.789062 295.414062 128.039062 299.269531 133.550781 302.863281 C 140.8125 307.679688 148.683594 311.535156 156.820312 314.601562 C 164.433594 317.40625 172.21875 319.507812 180.179688 320.910156 C 185.082031 321.789062 189.980469 322.050781 194.964844 322.488281 C 202.316406 323.101562 209.664062 322.578125 217.011719 321.613281 C 222.523438 320.824219 233.375 318.457031 233.546875 318.371094 C 233.636719 318.371094 233.984375 318.28125 233.984375 318.28125 C 234.074219 318.894531 234.160156 319.507812 234.160156 319.683594 C 234.335938 326.167969 235.121094 332.652344 235.035156 339.136719 C 235.035156 341.0625 236.261719 342.289062 238.183594 342.203125 C 242.382812 342.113281 246.671875 342.027344 250.871094 341.941406 C 252.007812 341.941406 253.058594 341.851562 254.195312 341.589844 C 256.292969 341.0625 257.082031 340.1875 257.167969 337.996094 C 257.257812 336.683594 257.257812 335.457031 257.257812 334.140625 C 257.257812 334.140625 258.132812 334.40625 258.480469 334.582031 C 265.394531 337.996094 272.917969 339.488281 280.441406 340.1875 C 286.914062 340.800781 293.390625 340.886719 299.863281 339.925781 C 303.976562 339.3125 308.261719 338.875 312.285156 337.558594 C 314.300781 336.945312 316.046875 335.808594 317.097656 333.878906 C 319.109375 330.113281 319.898438 326.082031 318.410156 321.875 C 318.0625 320.910156 317.535156 320.5625 316.660156 320.824219 C 315.261719 321.261719 313.6875 321.085938 312.199219 321.523438 C 311.675781 321.699219 310.800781 322.050781 310.535156 321.261719 C 310.273438 320.472656 311.148438 320.296875 311.675781 319.949219 C 312.113281 319.683594 312.550781 319.597656 313.074219 319.597656 C 315.261719 319.597656 317.359375 318.894531 319.546875 318.894531 C 322.699219 318.808594 323.921875 316.792969 324.886719 314.253906 C 326.195312 310.574219 325.324219 307.15625 324.011719 303.738281 C 323.746094 303.039062 323.222656 302.6875 322.523438 302.773438 C 322.085938 302.863281 321.558594 302.863281 321.121094 302.863281 C 318.761719 302.863281 316.3125 302.949219 313.949219 303.300781 C 313.511719 303.386719 312.8125 303.476562 312.8125 302.773438 C 312.8125 302.160156 313.335938 301.984375 313.773438 301.898438 C 314.125 301.8125 314.386719 301.8125 314.738281 301.8125 C 317.449219 301.8125 320.160156 301.636719 322.871094 301.371094 C 326.460938 301.109375 328.820312 298.746094 329.085938 295.152344 C 329.257812 292.347656 328.648438 289.808594 327.246094 287.355469 C 326.722656 286.300781 326.023438 285.863281 324.796875 285.953125 C 321.121094 286.300781 317.359375 286.566406 313.597656 286.828125 C 312.722656 286.914062 311.847656 286.914062 310.972656 286.914062 C 310.535156 286.914062 310.1875 286.652344 310.1875 286.214844 C 310.1875 285.953125 310.449219 285.601562 310.800781 285.601562 C 311.675781 285.425781 312.550781 285.425781 313.425781 285.339844 C 317.011719 285.074219 320.511719 284.902344 324.011719 284.636719 C 325.847656 284.460938 327.421875 283.847656 328.734375 282.273438 C 331.882812 278.328125 331.796875 274.125 330.046875 269.832031 C 328.910156 267.113281 326.722656 265.449219 323.398438 265.710938 C 320.335938 265.886719 317.359375 266.324219 314.300781 266.324219 C 310.710938 266.414062 307.210938 267.113281 303.714844 266.851562 C 303.714844 266.851562 303.714844 266.851562 303.625 266.851562 C 304.9375 264.484375 306.335938 262.207031 307.648438 259.839844 C 311.410156 253.09375 314.386719 246.085938 316.75 238.726562 C 318.234375 234.082031 319.460938 229.351562 320.335938 224.53125 C 321.296875 225.144531 321.910156 226.019531 322.785156 227.074219 C 324.359375 228.5625 324.273438 228.5625 325.847656 227.246094 C 326.546875 226.546875 327.335938 226.019531 328.121094 225.496094 C 333.285156 222.253906 338.796875 219.710938 344.042969 216.644531 C 347.542969 214.542969 351.132812 212.703125 354.191406 209.898438 C 359.53125 205.082031 360.230469 199.472656 357.867188 193.078125 Z M 259.621094 194.390625 Z M 216.402344 232.417969 C 216.3125 232.417969 216.226562 232.503906 216.136719 232.503906 C 216.226562 232.417969 216.3125 232.417969 216.402344 232.417969 Z M 132.238281 191.238281 Z M 132.238281 191.238281 " fill-opacity="1" fill-rule="nonzero"/></g><path fill="#f3ba1d" d="M 320.335938 224.621094 C 319.460938 229.4375 318.234375 234.167969 316.75 238.8125 C 314.386719 246.171875 311.410156 253.183594 307.648438 259.929688 C 306.335938 262.296875 304.9375 264.660156 303.625 267.027344 C 302.3125 267.726562 300.914062 267.203125 299.601562 267.464844 C 296.800781 268.164062 294 267.726562 291.203125 267.816406 C 290.066406 267.816406 289.539062 267.203125 290.066406 266.324219 C 290.765625 264.921875 290.851562 263.433594 291.203125 261.945312 C 292.515625 255.988281 292.863281 249.941406 291.902344 243.894531 C 290.941406 237.5 287.617188 232.503906 282.191406 229.175781 C 277.730469 226.460938 273.617188 228.472656 271.34375 232.679688 C 269.769531 235.660156 268.980469 239.164062 268.804688 242.582031 C 268.628906 246.171875 268.367188 249.765625 267.753906 253.269531 C 267.054688 257.5625 266.445312 261.945312 264.34375 265.886719 C 262.59375 269.21875 259.882812 271.058594 256.121094 271.230469 C 254.71875 271.320312 253.40625 271.230469 252.007812 271.230469 C 251.570312 269.566406 250.347656 268.953125 248.769531 268.867188 C 244.835938 268.605469 240.898438 268.867188 236.960938 268.953125 C 235.824219 268.953125 234.597656 269.304688 233.460938 269.832031 C 231.796875 270.617188 231.097656 271.84375 231.1875 273.683594 C 231.625 280.433594 232.234375 287.089844 232.5 293.835938 C 232.671875 298.042969 233.285156 302.160156 233.109375 306.367188 C 233.109375 306.804688 233.199219 307.15625 233.199219 307.59375 C 233.722656 311.1875 233.460938 314.777344 233.722656 318.371094 C 228.210938 319.507812 222.613281 320.824219 217.011719 321.613281 C 209.664062 322.578125 202.316406 323.101562 194.964844 322.488281 C 189.980469 322.050781 185.082031 321.789062 180.179688 320.910156 C 172.21875 319.507812 164.433594 317.40625 156.820312 314.601562 C 148.683594 311.535156 140.8125 307.679688 133.550781 302.863281 C 128.039062 299.269531 122.789062 295.414062 117.890625 291.035156 C 114.304688 287.792969 110.976562 284.375 107.742188 280.871094 C 102.667969 275.351562 98.292969 269.390625 94.441406 262.996094 C 90.769531 256.949219 87.621094 250.730469 84.996094 244.15625 C 82.894531 238.902344 81.144531 233.644531 79.746094 228.210938 C 78.609375 223.742188 77.734375 219.1875 77.207031 214.542969 C 76.507812 208.585938 75.894531 202.539062 76.160156 196.582031 C 76.246094 194.917969 76.332031 193.25 76.332031 191.5 C 76.507812 191.0625 76.597656 190.625 77.035156 190.273438 C 79.046875 188.609375 81.058594 186.855469 83.332031 185.453125 C 84.46875 184.753906 85.605469 184.753906 86.832031 185.015625 C 88.84375 185.453125 90.855469 185.890625 92.867188 186.417969 C 100.480469 188.34375 108.003906 190.449219 115.613281 192.199219 C 117.714844 192.636719 119.726562 192.8125 121.828125 192.636719 C 123.578125 192.550781 125.0625 191.761719 125.5 190.097656 C 125.851562 188.695312 126.199219 187.117188 126.027344 185.628906 C 125.675781 183.089844 124.890625 180.636719 123.925781 178.269531 C 121.914062 173.714844 119.550781 169.246094 117.714844 164.511719 C 116.050781 160.394531 114.390625 156.191406 113.078125 151.894531 C 112.726562 150.757812 112.640625 149.707031 113.339844 148.65625 C 115.003906 146.027344 116.578125 143.308594 118.238281 140.769531 C 120.953125 136.652344 123.75 132.53125 126.464844 128.414062 C 127.949219 126.050781 129.4375 123.683594 130.488281 121.054688 C 131.976562 117.375 130.3125 114.832031 126.464844 114.570312 C 126.113281 114.570312 125.851562 114.570312 125.5 114.570312 C 120.601562 114.484375 115.703125 114.484375 110.890625 115.097656 C 111.941406 113.433594 113.515625 112.378906 114.914062 111.066406 C 122.351562 104.058594 130.664062 98.1875 139.675781 93.453125 C 147.023438 89.511719 154.722656 86.445312 162.683594 84.078125 C 170.03125 81.890625 177.46875 80.574219 184.992188 79.609375 C 191.027344 78.824219 197.152344 78.734375 203.191406 79.085938 C 212.636719 79.609375 221.914062 81.101562 231.097656 83.640625 C 244.484375 87.410156 256.90625 93.105469 268.28125 100.902344 C 278.339844 107.738281 287.179688 115.886719 294.789062 125.347656 C 301.613281 133.671875 307.210938 142.785156 311.585938 152.683594 C 315.085938 160.484375 317.796875 168.632812 319.546875 177.042969 C 317.535156 177.042969 315.609375 176.605469 313.597656 176.953125 C 304.585938 178.269531 298.464844 186.417969 300.214844 195.792969 C 300.914062 199.386719 302.402344 202.453125 304.414062 205.34375 C 307.039062 209.199219 310.273438 212.527344 313.25 216.03125 C 315.699219 218.660156 318.324219 221.378906 320.335938 224.621094 Z M 199.078125 245.558594 C 205.640625 245.648438 212.289062 244.421875 218.851562 242.144531 C 224.273438 240.304688 229.261719 237.675781 233.984375 234.519531 C 238.886719 231.191406 243.171875 227.074219 246.933594 222.515625 C 251.832031 216.558594 255.15625 209.8125 257.605469 202.539062 C 258.480469 199.910156 259.09375 197.105469 259.621094 194.390625 C 259.792969 193.425781 259.621094 192.8125 258.480469 192.464844 C 256.558594 192.023438 254.546875 192.023438 252.53125 191.761719 C 251.484375 191.585938 251.046875 192.113281 250.78125 193.164062 C 249.820312 196.84375 248.769531 200.613281 247.285156 204.117188 C 242.996094 213.84375 236.433594 221.550781 227.425781 227.246094 C 222.789062 230.140625 217.800781 232.15625 212.464844 233.554688 C 206.777344 235.046875 200.828125 235.132812 195.054688 234.78125 C 189.28125 234.433594 183.59375 232.769531 178.167969 230.488281 C 169.59375 226.898438 162.246094 221.726562 156.121094 214.894531 C 151.308594 209.550781 147.375 203.503906 144.75 196.667969 C 143.960938 194.742188 143.171875 192.8125 142.648438 190.796875 C 142.472656 190.011719 142.210938 189.132812 141.160156 189.222656 C 138.449219 189.398438 135.738281 189.570312 133.113281 190.097656 C 132.238281 190.273438 132.148438 190.796875 132.238281 191.5 C 132.5 192.902344 132.761719 194.390625 133.113281 195.707031 C 135.5625 203.765625 139.0625 211.300781 144.222656 218.136719 C 153.058594 229.789062 164.257812 238.113281 178.34375 242.492188 C 185.082031 244.597656 191.730469 245.734375 199.078125 245.558594 Z M 175.980469 159.257812 C 171.605469 159.082031 168.109375 160.21875 164.957031 162.847656 C 158.570312 168.28125 158.308594 178.183594 165.046875 183.261719 C 171.957031 188.519531 181.582031 186.679688 186.480469 179.933594 C 189.980469 175.027344 189.980469 169.246094 186.480469 164.601562 C 183.769531 160.921875 180.179688 158.90625 175.980469 159.257812 Z M 227.949219 171.875 C 228.648438 171.433594 228.824219 171.171875 229.171875 170.996094 C 232.847656 169.246094 236.523438 167.578125 240.285156 165.914062 C 241.859375 165.214844 242.035156 165.039062 241.859375 163.113281 C 241.773438 162.671875 241.773438 162.148438 241.597656 161.710938 C 241.160156 159.871094 240.195312 158.117188 240.285156 156.101562 C 240.285156 155.402344 239.847656 155.136719 239.234375 155.050781 C 238.621094 154.960938 238.011719 155.136719 237.398438 155.402344 C 235.035156 156.363281 232.671875 157.328125 230.398438 158.378906 C 224.625 161.007812 218.9375 164.074219 213.164062 166.792969 C 210.625 168.019531 209.664062 169.507812 209.925781 172.3125 C 210.1875 174.941406 210.015625 174.941406 212.375 175.992188 C 212.640625 176.078125 212.8125 176.167969 213.074219 176.253906 C 217.277344 177.832031 221.386719 179.496094 225.585938 181.074219 C 229.960938 182.738281 234.335938 184.578125 238.886719 185.542969 C 240.371094 185.890625 240.371094 185.890625 240.722656 184.316406 C 241.246094 182.035156 241.246094 179.671875 241.507812 177.394531 C 241.597656 176.429688 241.335938 175.902344 240.371094 175.640625 C 238.710938 175.203125 237.046875 174.675781 235.296875 174.152344 C 232.9375 173.449219 230.660156 172.75 227.949219 171.875 Z M 227.949219 171.875 " fill-opacity="1" fill-rule="nonzero"/><g clip-path="url(#8781e7b506)"><path fill="#388cb8" d="M 110.890625 114.921875 C 115.789062 114.308594 120.601562 114.308594 125.5 114.394531 C 125.851562 114.394531 126.113281 114.394531 126.464844 114.394531 C 130.402344 114.660156 131.976562 117.199219 130.488281 120.878906 C 129.4375 123.507812 127.949219 125.875 126.464844 128.238281 C 123.75 132.355469 120.953125 136.476562 118.238281 140.59375 C 116.578125 143.222656 114.914062 145.851562 113.339844 148.480469 C 112.726562 149.53125 112.726562 150.582031 113.078125 151.722656 C 114.390625 156.015625 116.050781 160.132812 117.714844 164.339844 C 119.550781 168.980469 121.914062 173.449219 123.925781 178.09375 C 124.976562 180.371094 125.675781 182.914062 126.027344 185.453125 C 126.203125 187.03125 125.9375 188.519531 125.5 189.921875 C 125.0625 191.675781 123.488281 192.375 121.828125 192.464844 C 119.726562 192.550781 117.714844 192.464844 115.617188 192.023438 C 108.003906 190.273438 100.480469 188.257812 92.867188 186.242188 C 90.855469 185.71875 88.84375 185.277344 86.832031 184.839844 C 85.605469 184.578125 84.46875 184.578125 83.332031 185.277344 C 81.058594 186.679688 79.046875 188.34375 77.035156 190.097656 C 76.597656 190.449219 76.507812 190.886719 76.332031 191.324219 C 75.019531 191.675781 74.058594 192.464844 73.097656 193.339844 C 69.945312 196.144531 66.796875 198.945312 63.648438 201.75 C 61.460938 203.679688 58.921875 205.253906 56.300781 206.746094 C 55.511719 207.183594 54.722656 207.445312 53.761719 207.445312 C 52.097656 207.445312 50.960938 206.65625 50.613281 205.082031 C 50.351562 204.117188 50.175781 203.066406 50.085938 202.015625 C 49.914062 198.332031 49.914062 194.652344 49.648438 190.972656 C 49.386719 187.382812 49.039062 183.789062 48.773438 180.195312 C 48.511719 177.128906 48.074219 173.976562 48.164062 170.820312 C 48.25 168.632812 47.460938 166.964844 45.539062 165.828125 C 40.550781 162.761719 35.738281 159.519531 30.664062 156.539062 C 26.902344 154.261719 22.878906 152.421875 19.464844 149.707031 C 18.066406 148.566406 16.753906 147.515625 15.792969 146.027344 C 14.480469 144.097656 14.566406 142.257812 16.054688 140.503906 C 18.242188 137.878906 21.042969 136.039062 24.101562 134.722656 C 30.402344 131.917969 36.875 129.816406 43.4375 127.714844 C 44.839844 127.277344 46.324219 126.664062 47.726562 126.3125 C 51.222656 125.261719 52.535156 122.632812 53.410156 119.476562 C 55.160156 113.167969 55.863281 106.597656 57.523438 100.289062 C 58.222656 97.574219 58.660156 94.855469 59.625 92.226562 C 59.886719 91.613281 60.0625 91 60.410156 90.476562 C 62.859375 86.796875 65.921875 85.832031 69.773438 89.160156 C 74.058594 92.839844 77.296875 97.398438 80.621094 101.867188 C 83.683594 105.984375 86.65625 110.277344 90.507812 113.871094 C 91.992188 115.273438 93.742188 115.972656 95.667969 115.972656 C 99.78125 115.972656 103.804688 115.535156 107.828125 115.097656 C 108.964844 114.921875 109.929688 114.921875 110.890625 114.921875 Z M 110.890625 114.921875 " fill-opacity="1" fill-rule="nonzero"/></g><path fill="#f49b44" d="M 252.09375 271.144531 C 253.496094 271.144531 254.808594 271.230469 256.207031 271.144531 C 259.96875 270.96875 262.679688 269.128906 264.429688 265.800781 C 266.53125 261.855469 267.144531 257.476562 267.84375 253.183594 C 268.457031 249.589844 268.71875 246.085938 268.894531 242.492188 C 268.980469 239.078125 269.769531 235.570312 271.429688 232.59375 C 273.617188 228.386719 277.816406 226.371094 282.277344 229.085938 C 287.703125 232.417969 290.941406 237.410156 291.988281 243.808594 C 292.953125 249.851562 292.691406 255.898438 291.289062 261.855469 C 290.941406 263.347656 290.851562 264.835938 290.152344 266.238281 C 289.714844 267.113281 290.238281 267.726562 291.289062 267.726562 C 294.089844 267.640625 296.890625 268.078125 299.6875 267.378906 C 301 267.027344 302.402344 267.640625 303.714844 266.9375 C 307.210938 267.203125 310.710938 266.5 314.300781 266.414062 C 317.359375 266.414062 320.335938 265.976562 323.398438 265.800781 C 326.722656 265.535156 328.910156 267.203125 330.046875 269.917969 C 331.796875 274.210938 331.882812 278.417969 328.734375 282.359375 C 327.421875 283.9375 325.847656 284.550781 324.011719 284.726562 C 320.511719 284.988281 317.011719 285.164062 313.425781 285.425781 C 312.550781 285.515625 311.675781 285.515625 310.800781 285.6875 C 310.449219 285.6875 310.1875 286.039062 310.1875 286.300781 C 310.1875 286.742188 310.535156 287.003906 310.972656 287.003906 C 311.847656 287.003906 312.722656 287.003906 313.597656 286.914062 C 317.359375 286.652344 321.121094 286.390625 324.796875 286.039062 C 326.023438 285.953125 326.722656 286.390625 327.246094 287.441406 C 328.648438 289.894531 329.257812 292.4375 329.085938 295.238281 C 328.820312 298.832031 326.460938 301.199219 322.871094 301.460938 C 320.160156 301.722656 317.449219 301.898438 314.738281 301.898438 C 314.386719 301.898438 314.125 301.898438 313.773438 301.984375 C 313.335938 302.074219 312.8125 302.25 312.8125 302.863281 C 312.8125 303.5625 313.511719 303.476562 313.949219 303.386719 C 316.3125 303.039062 318.761719 302.949219 321.121094 302.949219 C 321.558594 302.949219 322.085938 302.949219 322.523438 302.863281 C 323.222656 302.773438 323.746094 303.125 324.011719 303.824219 C 325.324219 307.242188 326.199219 310.660156 324.886719 314.339844 C 323.921875 316.882812 322.699219 318.894531 319.546875 318.984375 C 317.359375 318.984375 315.261719 319.683594 313.074219 319.683594 C 312.550781 319.683594 312.113281 319.773438 311.675781 320.035156 C 311.148438 320.386719 310.273438 320.5625 310.535156 321.351562 C 310.800781 322.136719 311.675781 321.789062 312.199219 321.613281 C 313.6875 321.175781 315.261719 321.351562 316.660156 320.910156 C 317.535156 320.648438 318.0625 321 318.410156 321.964844 C 319.898438 326.167969 319.109375 330.199219 317.097656 333.964844 C 316.046875 335.894531 314.300781 337.035156 312.285156 337.648438 C 308.261719 338.960938 303.976562 339.398438 299.863281 340.011719 C 293.390625 340.976562 286.914062 340.886719 280.441406 340.273438 C 272.917969 339.574219 265.394531 338.085938 258.480469 334.667969 C 258.132812 334.492188 257.78125 334.316406 257.34375 334.230469 C 256.820312 330.285156 256.207031 326.34375 255.859375 322.3125 C 255.15625 314.339844 254.546875 306.367188 253.933594 298.394531 C 253.496094 292.960938 252.707031 287.617188 252.359375 282.183594 C 251.921875 278.417969 251.921875 274.824219 252.09375 271.144531 Z M 252.09375 271.144531 " fill-opacity="1" fill-rule="nonzero"/><path fill="#0f8870" d="M 320.335938 224.621094 C 318.324219 221.464844 315.785156 218.660156 313.335938 215.859375 C 310.363281 212.351562 307.125 209.023438 304.5 205.167969 C 302.488281 202.277344 301 199.121094 300.300781 195.617188 C 298.550781 186.242188 304.589844 178.09375 313.6875 176.78125 C 315.699219 176.515625 317.710938 176.867188 319.636719 176.867188 C 325.324219 178.882812 329.347656 182.824219 332.234375 188.257812 C 333.722656 187.03125 335.121094 185.628906 337.046875 184.929688 C 344.746094 182.035156 354.628906 184.140625 357.867188 193.078125 C 360.230469 199.472656 359.53125 205.082031 354.191406 209.988281 C 351.132812 212.789062 347.542969 214.628906 344.042969 216.734375 C 338.796875 219.800781 333.285156 222.339844 328.121094 225.582031 C 327.335938 226.109375 326.546875 226.632812 325.847656 227.335938 C 324.273438 228.648438 324.359375 228.648438 322.785156 227.160156 C 321.910156 226.109375 321.296875 225.234375 320.335938 224.621094 Z M 320.335938 224.621094 " fill-opacity="1" fill-rule="nonzero"/><g clip-path="url(#368579ef29)"><path fill="#0f8870" d="M 252.09375 271.144531 C 251.921875 274.824219 252.007812 278.503906 252.269531 282.183594 C 252.707031 287.617188 253.40625 293.050781 253.84375 298.394531 C 254.546875 306.367188 255.070312 314.339844 255.769531 322.3125 C 256.121094 326.257812 256.730469 330.199219 257.257812 334.230469 C 257.257812 335.542969 257.257812 336.769531 257.167969 338.085938 C 257.082031 340.273438 256.292969 341.152344 254.195312 341.675781 C 253.058594 341.941406 252.007812 342.027344 250.871094 342.027344 C 246.671875 342.117188 242.382812 342.203125 238.183594 342.289062 C 236.261719 342.378906 235.035156 341.152344 235.035156 339.222656 C 235.121094 332.738281 234.335938 326.257812 234.160156 319.773438 C 234.160156 319.246094 233.984375 318.632812 233.898438 318.109375 C 233.636719 314.515625 233.898438 310.921875 233.375 307.332031 C 233.285156 306.894531 233.199219 306.542969 233.285156 306.105469 C 233.460938 301.898438 232.847656 297.78125 232.671875 293.574219 C 232.410156 286.828125 231.796875 280.167969 231.359375 273.421875 C 231.273438 271.582031 231.972656 270.355469 233.636719 269.566406 C 234.773438 269.042969 235.910156 268.691406 237.136719 268.691406 C 241.070312 268.605469 245.007812 268.339844 248.945312 268.605469 C 250.433594 268.867188 251.65625 269.390625 252.09375 271.144531 Z M 252.09375 271.144531 " fill-opacity="1" fill-rule="nonzero"/></g><path fill="#f49b44" d="M 103.015625 293.488281 C 102.929688 294.277344 102.230469 294.449219 101.617188 294.539062 C 99.167969 294.625 96.894531 295.414062 94.617188 296.117188 C 88.667969 298.042969 83.945312 301.722656 80.183594 306.71875 C 77.382812 310.398438 75.109375 314.253906 73.621094 318.632812 C 72.921875 320.648438 72.222656 322.75 72.222656 324.941406 C 72.222656 325.554688 72.132812 326.167969 71.523438 326.34375 C 70.734375 326.605469 70.472656 325.90625 70.210938 325.292969 C 68.371094 321.175781 66.972656 316.96875 64.871094 312.9375 C 61.285156 305.929688 56.210938 300.585938 49.386719 296.730469 C 45.886719 294.800781 42.125 293.398438 38.363281 292.085938 C 37.3125 291.734375 37.050781 291.210938 37.140625 290.15625 C 37.226562 289.019531 38.101562 289.019531 38.890625 288.929688 C 46.238281 288.316406 52.800781 285.777344 58.3125 280.605469 C 61.023438 278.066406 63.824219 275.527344 66.273438 272.632812 C 69.246094 269.042969 70.472656 264.75 71.433594 260.367188 C 71.523438 260.105469 71.433594 259.929688 71.523438 259.667969 C 71.609375 259.316406 71.785156 259.054688 72.046875 258.964844 C 72.484375 258.878906 72.746094 259.226562 72.832031 259.667969 C 73.007812 260.191406 73.183594 260.71875 73.269531 261.242188 C 74.847656 268.078125 77.820312 274.210938 82.457031 279.46875 C 87.09375 284.8125 92.78125 288.667969 99.34375 291.382812 C 100.304688 291.824219 101.265625 292.171875 102.230469 292.523438 C 102.667969 292.875 103.015625 292.960938 103.015625 293.488281 Z M 103.015625 293.488281 " fill-opacity="1" fill-rule="nonzero"/><g clip-path="url(#54680b246b)"><path fill="#388cb8" d="M 306.25 64.714844 C 306.164062 65.417969 305.636719 65.59375 304.9375 65.765625 C 303.1875 66.207031 301.351562 66.46875 299.601562 67.167969 C 293.828125 69.359375 289.191406 72.953125 285.164062 77.597656 C 282.105469 81.1875 280.003906 85.304688 278.253906 89.601562 C 277.816406 90.652344 277.640625 91.703125 277.292969 92.839844 C 277.117188 93.453125 276.941406 94.242188 276.15625 94.242188 C 275.367188 94.242188 275.191406 93.453125 275.015625 92.929688 C 274.40625 90.300781 273.441406 87.847656 272.480469 85.394531 C 270.03125 79.171875 266.269531 73.828125 260.933594 69.796875 C 257.695312 67.34375 253.933594 65.59375 249.910156 64.628906 C 248.859375 64.367188 247.632812 64.539062 246.582031 64.453125 C 245.972656 64.453125 245.183594 64.628906 245.097656 63.664062 C 245.097656 62.875 245.796875 62.613281 246.410156 62.527344 C 248.421875 62.175781 250.257812 61.386719 252.09375 60.6875 C 258.65625 58.058594 264.867188 54.640625 269.59375 49.207031 C 272.390625 45.964844 274.40625 42.285156 275.367188 38.082031 C 275.71875 36.503906 276.328125 35.011719 276.855469 33.523438 C 276.941406 33.171875 277.292969 32.824219 277.730469 32.910156 C 277.992188 33 278.078125 33.171875 278.167969 33.4375 C 278.777344 38.957031 281.753906 43.425781 284.640625 47.980469 C 286.214844 50.433594 287.703125 52.800781 289.714844 54.902344 C 293.214844 58.320312 297.328125 60.6875 301.875 62.261719 C 303.101562 62.699219 304.324219 63.050781 305.289062 63.925781 C 305.8125 63.925781 306.25 64.101562 306.25 64.714844 Z M 306.25 64.714844 " fill-opacity="1" fill-rule="nonzero"/></g><path fill="#010202" d="M 199.078125 245.558594 C 191.730469 245.734375 184.992188 244.507812 178.34375 242.492188 C 164.257812 238.113281 153.148438 229.789062 144.222656 218.136719 C 139.0625 211.390625 135.5625 203.855469 133.113281 195.707031 C 132.675781 194.304688 132.5 192.902344 132.238281 191.5 C 132.148438 190.796875 132.238281 190.273438 133.113281 190.097656 C 135.738281 189.570312 138.449219 189.398438 141.160156 189.222656 C 142.210938 189.132812 142.472656 190.011719 142.648438 190.796875 C 143.171875 192.8125 143.960938 194.742188 144.75 196.667969 C 147.375 203.503906 151.308594 209.550781 156.121094 214.894531 C 162.246094 221.726562 169.683594 226.898438 178.167969 230.488281 C 183.59375 232.769531 189.28125 234.433594 195.054688 234.78125 C 200.828125 235.132812 206.691406 235.046875 212.464844 233.554688 C 217.714844 232.15625 222.789062 230.226562 227.425781 227.246094 C 236.433594 221.550781 242.996094 213.84375 247.285156 204.117188 C 248.859375 200.613281 249.820312 196.84375 250.78125 193.164062 C 251.046875 192.113281 251.570312 191.585938 252.53125 191.761719 C 254.457031 192.113281 256.46875 192.023438 258.480469 192.464844 C 259.707031 192.726562 259.882812 193.339844 259.621094 194.390625 C 259.09375 197.105469 258.570312 199.910156 257.605469 202.539062 C 255.15625 209.8125 251.746094 216.558594 246.933594 222.515625 C 243.171875 227.074219 238.972656 231.191406 233.984375 234.519531 C 229.261719 237.761719 224.273438 240.304688 218.851562 242.144531 C 212.375 244.421875 205.640625 245.734375 199.078125 245.558594 Z M 199.078125 245.558594 " fill-opacity="1" fill-rule="nonzero"/><path fill="#010202" d="M 175.980469 159.257812 C 180.269531 158.992188 183.855469 161.007812 186.566406 164.601562 C 190.066406 169.246094 190.066406 175.027344 186.566406 179.933594 C 181.667969 186.679688 172.042969 188.519531 165.132812 183.261719 C 158.398438 178.183594 158.660156 168.28125 165.046875 162.847656 C 168.019531 160.132812 171.605469 158.992188 175.980469 159.257812 Z M 175.980469 159.257812 " fill-opacity="1" fill-rule="nonzero"/><path fill="#010202" d="M 227.949219 171.875 C 230.660156 172.75 232.9375 173.449219 235.210938 174.152344 C 236.871094 174.675781 238.535156 175.203125 240.285156 175.640625 C 241.246094 175.902344 241.507812 176.429688 241.421875 177.394531 C 241.160156 179.671875 241.160156 182.035156 240.632812 184.316406 C 240.285156 185.890625 240.285156 185.804688 238.796875 185.542969 C 234.160156 184.578125 229.875 182.648438 225.5 181.074219 C 221.300781 179.496094 217.1875 177.832031 212.988281 176.253906 C 212.726562 176.167969 212.550781 176.167969 212.289062 175.992188 C 209.839844 175.027344 210.101562 174.941406 209.839844 172.3125 C 209.578125 169.507812 210.453125 168.019531 213.074219 166.792969 C 218.851562 164.074219 224.449219 161.097656 230.3125 158.378906 C 232.671875 157.328125 234.949219 156.277344 237.308594 155.402344 C 237.921875 155.136719 238.535156 155.050781 239.148438 155.050781 C 239.757812 155.136719 240.195312 155.402344 240.195312 156.101562 C 240.195312 158.117188 241.070312 159.78125 241.507812 161.710938 C 241.597656 162.148438 241.683594 162.671875 241.773438 163.109375 C 241.945312 164.953125 241.773438 165.125 240.195312 165.914062 C 236.523438 167.578125 232.847656 169.332031 229.085938 170.996094 C 228.824219 171.171875 228.648438 171.433594 227.949219 171.875 Z M 227.949219 171.875 " fill-opacity="1" fill-rule="nonzero"/></svg>